<svg width="375" height="451" viewBox="0 0 375 451" fill="none" xmlns="http://www.w3.org/2000/svg">
<path opacity="0.64" d="M187.301 450.223C290.745 450.223 374.602 433.352 374.602 412.54C374.602 391.728 290.745 374.857 187.301 374.857C83.8577 374.857 0 391.728 0 412.54C0 433.352 83.8577 450.223 187.301 450.223Z" fill="#68CCE9"/>
<path d="M97.5152 406.485C100.144 397.96 108.191 393.419 121.256 389.595C129.542 387.205 140.058 386.09 156.55 382.744C164.596 381.15 170.253 377.964 170.253 377.964V387.125C170.253 387.125 115.68 397.881 107.155 411.982C103.012 418.913 104.287 435.883 123.806 437.635C117.831 438.512 108.031 436.998 102.773 431.66C96.2405 425.048 94.4878 416.205 97.5152 406.485Z" fill="#282323" stroke="black" stroke-width="4" stroke-miterlimit="10" stroke-linecap="round" stroke-linejoin="round"/>
<path d="M170.252 387.125C170.252 387.125 137.588 393.18 120.141 400.669C104.844 407.282 105.322 414.133 104.924 421.144C104.685 425.207 107.553 435.245 119.185 436.998C133.047 439.069 149.379 436.839 170.252 423.534C170.252 390.95 170.252 387.125 170.252 387.125Z" fill="#442C2A"/>
<path opacity="0.37" d="M104.924 421.144C105.243 415.487 105.004 409.911 112.971 404.493C112.652 406.485 112.572 408.397 112.493 410.389C112.254 414.452 122.053 409.194 133.685 410.867C145.794 412.699 152.964 426.561 170.252 417.24C170.252 419.232 170.252 421.303 170.252 423.454C149.379 436.759 133.047 438.91 119.185 436.918C107.553 435.245 104.685 425.127 104.924 421.144Z" fill="#442C2A"/>
<path d="M170.252 387.125C170.252 387.125 137.588 393.18 120.141 400.669C104.844 407.282 105.322 414.133 104.924 421.144C104.685 425.207 107.553 435.245 119.185 436.998C133.047 439.069 149.379 436.839 170.252 423.534C170.252 390.95 170.252 387.125 170.252 387.125Z" stroke="black" stroke-width="4" stroke-miterlimit="10" stroke-linecap="round" stroke-linejoin="round"/>
<path d="M139.978 405.848C137.349 407.282 137.986 421.224 144.36 423.136" stroke="black" stroke-width="4" stroke-miterlimit="10" stroke-linecap="round" stroke-linejoin="round"/>
<path d="M149.937 404.812C147.228 408.636 149.14 417.639 154 419.869" stroke="black" stroke-width="4" stroke-miterlimit="10" stroke-linecap="round" stroke-linejoin="round"/>
<path d="M159.099 401.625C156.39 405.449 158.302 414.452 163.162 416.683" stroke="black" stroke-width="4" stroke-miterlimit="10" stroke-linecap="round" stroke-linejoin="round"/>
<path d="M253.108 360.357C235.899 372.307 211.441 379.159 185.867 379.159C160.373 379.159 135.835 372.307 118.627 360.357C110.74 354.86 97.5146 343.387 97.5146 328.091C97.5146 312.795 110.74 301.322 118.627 295.825C135.835 283.875 160.294 277.023 185.867 277.023C211.361 277.023 235.899 283.875 253.108 295.825C260.995 301.322 274.22 312.795 274.22 328.091C274.22 343.387 260.995 354.86 253.108 360.357Z" fill="#151E28"/>
<path d="M331.9 340.838C331.581 342.431 331.263 343.945 330.785 345.538C318.356 390.87 258.446 425.287 186.345 425.287C114.086 425.287 54.0157 390.711 41.8264 345.22C41.5077 343.945 41.189 342.67 40.95 341.396C40.6313 339.006 40.711 336.615 41.189 334.225C44.1367 320.841 60.3892 313.113 77.5179 316.937C88.7512 319.407 97.5148 326.338 101.419 334.544C101.817 336.297 102.454 338.05 103.171 339.723C107.314 349.283 115.6 356.453 121.176 360.436C137.827 372.387 161.648 379.238 186.345 379.238C211.122 379.238 234.864 372.387 251.514 360.436C257.171 356.373 265.536 349.123 269.599 339.563C270.237 338.05 270.794 336.376 271.193 334.783C275.017 326.498 283.86 319.566 295.173 317.017C312.302 313.193 328.554 321 331.502 334.305C332.059 336.376 332.139 338.607 331.9 340.838Z" fill="#2A3749"/>
<path opacity="0.67" d="M331.502 334.146C331.422 333.747 331.342 333.429 331.183 333.03C330.944 334.305 330.625 335.659 330.227 336.934C317.958 382.266 257.967 416.683 185.947 416.683C113.687 416.683 53.6173 382.106 41.428 336.615C41.2686 336.137 41.1889 335.659 41.0296 335.102C40.7109 337.173 40.6313 339.245 40.9499 341.236C41.1889 342.511 41.5076 343.786 41.8263 345.06C54.0156 390.551 114.086 425.127 186.345 425.127C258.445 425.127 318.356 390.711 330.785 345.379C331.183 343.865 331.581 342.272 331.9 340.679C332.139 338.607 332.059 336.377 331.502 334.146Z" fill="#151E28"/>
<path d="M331.9 340.838C331.581 342.431 331.263 343.945 330.785 345.538C318.356 390.87 258.446 425.287 186.345 425.287C114.086 425.287 54.0157 390.711 41.8264 345.22C41.5077 343.945 41.189 342.67 40.95 341.396C40.6313 339.006 40.711 336.615 41.189 334.225C44.1367 320.841 60.3892 313.113 77.5179 316.937C88.7512 319.407 97.5148 326.338 101.419 334.544C101.817 336.297 102.454 338.05 103.171 339.723C107.314 349.283 115.6 356.453 121.176 360.436C137.827 372.387 161.648 379.238 186.345 379.238C211.122 379.238 234.864 372.387 251.514 360.436C257.171 356.373 265.536 349.123 269.599 339.563C270.237 338.05 270.794 336.376 271.193 334.783C275.017 326.498 283.86 319.566 295.173 317.017C312.302 313.193 328.554 321 331.502 334.305C332.059 336.376 332.139 338.607 331.9 340.838Z" stroke="black" stroke-width="4" stroke-miterlimit="10" stroke-linecap="round" stroke-linejoin="round"/>
<path d="M187.301 354.86C226.945 354.86 259.083 343.945 259.083 330.481C259.083 317.017 226.945 306.102 187.301 306.102C147.657 306.102 115.52 317.017 115.52 330.481C115.52 343.945 147.657 354.86 187.301 354.86Z" fill="#9B2121"/>
<path d="M187.301 354.86C226.945 354.86 259.083 343.945 259.083 330.481C259.083 317.017 226.945 306.102 187.301 306.102C147.657 306.102 115.52 317.017 115.52 330.481C115.52 343.945 147.657 354.86 187.301 354.86Z" stroke="black" stroke-width="4" stroke-miterlimit="10" stroke-linecap="round" stroke-linejoin="round"/>
<path d="M269.042 277.262H103.649C90.982 277.262 81.1828 266.188 82.7761 253.601L90.1057 195.044C92.177 178.314 106.358 165.806 123.248 165.806H249.602C266.413 165.806 280.594 178.314 282.745 195.044L290.074 253.601C291.508 266.188 281.709 277.262 269.042 277.262Z" fill="#F1534D"/>
<path d="M269.042 277.262H103.649C90.982 277.262 81.1828 266.188 82.7761 253.601L90.1057 195.044C92.177 178.314 106.358 165.806 123.248 165.806H249.602C266.413 165.806 280.594 178.314 282.745 195.044L290.074 253.601C291.508 266.188 281.709 277.262 269.042 277.262Z" stroke="black" stroke-width="4" stroke-miterlimit="10" stroke-linecap="round" stroke-linejoin="round"/>
<path d="M121.574 215.28L119.981 235.277" stroke="black" stroke-width="4" stroke-miterlimit="10" stroke-linecap="round" stroke-linejoin="round"/>
<path d="M252.311 215.28L253.904 235.277" stroke="black" stroke-width="4" stroke-miterlimit="10" stroke-linecap="round" stroke-linejoin="round"/>
<path d="M269.041 277.262H103.648C90.981 277.262 81.1818 266.188 82.7752 253.601L90.1047 195.044C92.1761 178.314 106.357 165.806 123.247 165.806H249.601C266.412 165.806 280.593 178.314 282.744 195.044L290.073 253.601C291.507 266.188 281.708 277.262 269.041 277.262Z" fill="#F1534D"/>
<g opacity="0.24">
<path opacity="0.24" d="M90.0253 201.258C92.0967 184.528 106.278 172.02 123.167 172.02H249.522C266.332 172.02 280.513 184.528 282.664 201.258L289.914 259.337C290.153 257.504 290.233 255.592 289.994 253.601L282.664 195.044C280.593 178.314 266.412 165.806 249.522 165.806H123.167C106.357 165.806 92.1763 178.314 90.0253 195.044L82.6958 253.601C82.4567 255.513 82.4568 257.425 82.7754 259.337L90.0253 201.258Z" fill="#9B2121"/>
<path opacity="0.24" d="M130.498 172.02C130.498 172.02 140.297 173.773 141.094 179.19C141.731 183.572 141.651 186.44 143.324 188.193C144.997 189.945 148.901 193.531 156.788 193.531C152.407 189.149 152.327 173.773 151.132 173.773C150.016 173.773 147.148 166.125 147.148 166.125L143.324 164.372C143.404 164.372 129.303 166.124 130.498 172.02Z" fill="#9B2121"/>
<path opacity="0.24" d="M235.182 172.02C235.182 172.02 225.383 173.773 224.586 179.19C223.949 183.572 224.028 186.44 222.355 188.193C220.682 189.866 216.778 193.531 208.891 193.531C213.273 189.149 213.353 173.773 214.548 173.773C215.663 173.773 218.531 166.125 218.531 166.125L222.355 164.372C222.275 164.372 236.377 166.124 235.182 172.02Z" fill="#9B2121"/>
</g>
<path d="M269.041 277.262H103.648C90.981 277.262 81.1818 266.188 82.7752 253.601L90.1047 195.044C92.1761 178.314 106.357 165.806 123.247 165.806H249.601C266.412 165.806 280.593 178.314 282.744 195.044L290.073 253.601C291.507 266.188 281.708 277.262 269.041 277.262Z" stroke="black" stroke-width="4" stroke-miterlimit="10" stroke-linecap="round" stroke-linejoin="round"/>
<path d="M121.574 215.28L119.981 235.277" stroke="black" stroke-width="4" stroke-miterlimit="10" stroke-linecap="round" stroke-linejoin="round"/>
<path d="M252.311 215.28L253.904 235.277" stroke="black" stroke-width="4" stroke-miterlimit="10" stroke-linecap="round" stroke-linejoin="round"/>
<path d="M165.074 132.504L138.863 131.15L126.594 132.504C126.594 132.504 118.388 138.639 118.388 140.312C118.388 141.985 119.184 155.608 119.184 155.608C119.184 155.608 138.544 158.237 140.615 160.229C142.687 162.221 154.956 173.693 154.956 173.693L166.826 169.072L173.04 152.501L165.074 132.504Z" fill="#9B2121"/>
<path d="M160.453 122.386H130.179C117.989 122.386 108.031 132.265 108.031 144.534C108.031 156.724 117.91 166.682 130.179 166.682H134.162C140.615 166.682 145.794 171.861 145.794 178.314V179.509C145.794 187.237 152.088 193.531 159.815 193.531V179.19C159.975 179.19 160.134 179.349 160.134 179.509V178.314C160.134 163.973 148.502 152.342 134.162 152.342H130.179C125.877 152.342 122.371 148.836 122.371 144.534C122.371 140.232 125.877 136.727 130.179 136.727H160.453V122.386Z" fill="#F1534D"/>
<path d="M158.62 169.311C154.956 159.432 145.395 152.262 134.242 152.262H130.258C125.956 152.262 122.451 148.757 122.451 144.455C122.451 140.152 125.956 136.647 130.258 136.647H160.532V122.307H130.258C118.069 122.307 108.11 132.186 108.11 144.455C108.11 156.644 117.989 166.603 130.258 166.603H134.242C140.695 166.603 145.873 171.781 145.873 178.234V179.429C145.873 187.157 152.167 193.451 159.895 193.451" stroke="black" stroke-width="4" stroke-miterlimit="10" stroke-linecap="round" stroke-linejoin="round"/>
<path d="M199.73 132.504L225.941 131.15L238.21 132.504C238.21 132.504 246.415 138.639 246.415 140.312C246.415 141.985 245.619 155.608 245.619 155.608C245.619 155.608 226.259 158.237 224.188 160.229C222.116 162.3 209.847 173.693 209.847 173.693L197.977 169.072L191.763 152.501L199.73 132.504Z" fill="#9B2121"/>
<path d="M204.35 122.386H234.624C246.814 122.386 256.772 132.265 256.772 144.534C256.772 156.724 246.893 166.682 234.624 166.682H230.641C224.188 166.682 219.009 171.861 219.009 178.314V179.509C219.009 187.237 212.715 193.531 204.987 193.531V179.19C204.828 179.19 204.669 179.349 204.669 179.509V178.314C204.669 163.973 216.3 152.342 230.641 152.342H234.624C238.926 152.342 242.432 148.836 242.432 144.534C242.432 140.232 238.926 136.727 234.624 136.727H204.35V122.386Z" fill="#F1534D"/>
<path d="M206.262 169.311C209.927 159.432 219.487 152.262 230.641 152.262H234.624C238.926 152.262 242.432 148.757 242.432 144.455C242.432 140.152 238.926 136.647 234.624 136.647H204.35V122.307H234.624C246.814 122.307 256.772 132.186 256.772 144.455C256.772 156.644 246.893 166.603 234.624 166.603H230.641C224.188 166.603 219.009 171.781 219.009 178.234V179.429C219.009 187.157 212.715 193.451 204.987 193.451" stroke="black" stroke-width="4" stroke-miterlimit="10" stroke-linecap="round" stroke-linejoin="round"/>
<path d="M183.875 182.218C201.035 182.218 214.946 168.307 214.946 151.147C214.946 133.987 201.035 120.076 183.875 120.076C166.715 120.076 152.804 133.987 152.804 151.147C152.804 168.307 166.715 182.218 183.875 182.218Z" fill="#F46262"/>
<path d="M154.159 141.985C162.763 147.482 172.961 150.748 183.876 150.748C194.79 150.748 204.988 147.562 213.592 141.985C209.688 129.238 197.897 119.996 183.876 119.996C169.934 120.076 158.063 129.318 154.159 141.985Z" fill="#F1534D"/>
<path d="M183.875 182.218C201.035 182.218 214.946 168.307 214.946 151.147C214.946 133.987 201.035 120.076 183.875 120.076C166.715 120.076 152.804 133.987 152.804 151.147C152.804 168.307 166.715 182.218 183.875 182.218Z" stroke="black" stroke-width="4" stroke-miterlimit="10" stroke-linecap="round" stroke-linejoin="round"/>
<path d="M183.875 169.152C173.757 169.152 165.551 160.946 165.551 150.828V137.125C165.551 134.576 167.623 132.504 170.172 132.504H197.658C200.207 132.504 202.279 134.576 202.279 137.125V150.828C202.199 160.946 193.993 169.152 183.875 169.152Z" fill="#FFC897"/>
<path d="M197.658 132.504H170.172C167.623 132.504 165.551 134.735 165.551 137.444V148.677C171.287 150.828 177.422 152.023 183.875 152.023C190.328 152.023 196.463 150.828 202.199 148.677V137.444C202.199 134.735 200.128 132.504 197.658 132.504Z" fill="#E5A973"/>
<path d="M183.875 169.152C173.757 169.152 165.551 160.946 165.551 150.828V137.125C165.551 134.576 167.623 132.504 170.172 132.504H197.658C200.207 132.504 202.279 134.576 202.279 137.125V150.828C202.199 160.946 193.993 169.152 183.875 169.152Z" stroke="black" stroke-width="4" stroke-miterlimit="10" stroke-linecap="round" stroke-linejoin="round"/>
<path d="M203.713 375.574H186.664V429.987H203.713V375.574Z" fill="#607691"/>
<path d="M203.713 375.574H186.664V429.987H203.713V375.574Z" stroke="black" stroke-width="4" stroke-miterlimit="10" stroke-linecap="round" stroke-linejoin="round"/>
<path d="M103.092 339.563C102.375 337.89 101.817 336.217 101.339 334.385C102.215 336.138 102.773 337.811 103.092 339.563Z" stroke="black" stroke-width="4" stroke-miterlimit="10" stroke-linecap="round" stroke-linejoin="round"/>
<path d="M269.679 339.404C269.997 337.731 270.555 336.137 271.272 334.624C270.874 336.297 270.316 337.89 269.679 339.404Z" stroke="black" stroke-width="4" stroke-miterlimit="10" stroke-linecap="round" stroke-linejoin="round"/>
<path d="M269.439 335.58H103.33C97.4346 335.58 92.4155 331.198 91.6188 325.303L81.2619 244.2C80.3856 237.189 85.8827 230.895 92.9732 230.895H279.796C286.887 230.895 292.384 237.109 291.508 244.2L281.151 325.303C280.354 331.118 275.335 335.58 269.439 335.58Z" fill="#B5B5B5"/>
<path opacity="0.21" d="M281.071 320.204C280.354 326.099 275.335 330.481 269.36 330.481H103.33C97.4348 330.481 92.4157 326.099 91.619 320.204L81.4214 240.296C81.1824 241.571 81.1028 242.845 81.2621 244.2L91.619 325.303C92.3361 331.198 97.3552 335.58 103.33 335.58H269.44C275.335 335.58 280.354 331.198 281.151 325.303L291.508 244.2C291.667 242.845 291.587 241.571 291.348 240.296L281.071 320.204Z" fill="#7E7E7E"/>
<path opacity="0.21" d="M81.3416 244.917C82.2976 239.499 87.0777 235.197 92.8935 235.197H279.717C285.612 235.197 290.313 239.42 291.269 244.917L291.348 244.12C292.225 237.109 286.727 230.815 279.637 230.815H92.9732C85.8827 230.815 80.3856 237.03 81.2619 244.12L81.3416 244.917Z" fill="#7E7E7E"/>
<path d="M269.439 335.58H103.33C97.4346 335.58 92.4155 331.198 91.6188 325.303L81.2619 244.2C80.3856 237.189 85.8827 230.895 92.9732 230.895H279.796C286.887 230.895 292.384 237.109 291.508 244.2L281.151 325.303C280.354 331.118 275.335 335.58 269.439 335.58Z" stroke="black" stroke-width="4" stroke-miterlimit="10" stroke-linecap="round" stroke-linejoin="round"/>
<path opacity="0.66" d="M194.232 278.298C190.647 278.298 187.779 275.43 187.779 271.845C187.779 271.606 187.779 271.367 187.859 271.128C187.221 271.048 186.584 270.968 185.947 270.968C180.131 270.968 175.351 275.749 175.351 281.564C175.351 287.38 180.131 292.16 185.947 292.16C191.762 292.16 196.542 287.38 196.542 281.564C196.542 280.369 196.303 279.174 195.985 278.059C195.427 278.139 194.869 278.298 194.232 278.298Z" fill="#B5B5B5"/>
<path d="M276.45 406.485C273.821 397.96 265.775 393.419 252.709 389.595C244.424 387.205 233.907 386.09 217.416 382.744C209.369 381.15 203.713 377.964 203.713 377.964V387.125C203.713 387.125 258.286 397.881 266.811 411.982C270.953 418.913 269.679 435.883 250.16 437.635C256.135 438.512 265.934 436.998 271.192 431.66C277.725 425.048 279.478 416.205 276.45 406.485Z" fill="#282323" stroke="black" stroke-width="4" stroke-miterlimit="10" stroke-linecap="round" stroke-linejoin="round"/>
<path d="M203.713 387.125C203.713 387.125 236.377 393.18 253.825 400.669C269.121 407.282 268.643 414.133 269.041 421.144C269.28 425.207 266.412 435.245 254.781 436.998C240.918 439.069 224.586 436.839 203.713 423.534C203.713 390.95 203.713 387.125 203.713 387.125Z" fill="#442C2A"/>
<path opacity="0.37" d="M269.041 421.144C268.723 415.487 268.962 409.911 260.995 404.493C261.313 406.485 261.393 408.397 261.473 410.389C261.712 414.452 258.844 424.49 247.212 426.243C235.102 428.075 221.001 426.561 203.713 417.24C203.713 419.232 203.713 421.303 203.713 423.454C224.586 436.759 240.918 438.91 254.781 436.918C266.492 435.245 269.28 425.127 269.041 421.144Z" fill="#442C2A"/>
<path d="M203.713 387.125C203.713 387.125 236.377 393.18 253.825 400.669C269.121 407.282 268.643 414.133 269.041 421.144C269.28 425.207 266.412 435.245 254.781 436.998C240.918 439.069 224.586 436.839 203.713 423.534C203.713 390.95 203.713 387.125 203.713 387.125Z" stroke="black" stroke-width="4" stroke-miterlimit="10" stroke-linecap="round" stroke-linejoin="round"/>
<path d="M233.987 405.848C236.616 407.282 235.979 421.224 229.605 423.136" stroke="black" stroke-width="4" stroke-miterlimit="10" stroke-linecap="round" stroke-linejoin="round"/>
<path d="M224.029 404.812C226.738 408.636 224.826 417.639 219.966 419.869" stroke="black" stroke-width="4" stroke-miterlimit="10" stroke-linecap="round" stroke-linejoin="round"/>
<path d="M214.867 401.625C217.576 405.449 215.664 414.452 210.804 416.683" stroke="black" stroke-width="4" stroke-miterlimit="10" stroke-linecap="round" stroke-linejoin="round"/>
<path d="M155.912 185.404V227.788" stroke="black" stroke-width="6" stroke-miterlimit="10" stroke-linecap="round" stroke-linejoin="round"/>
<path d="M209.688 185.404V215.28" stroke="black" stroke-width="6" stroke-miterlimit="10" stroke-linecap="round" stroke-linejoin="round"/>
<path d="M209.688 224.283C213.34 224.283 216.3 221.322 216.3 217.67C216.3 214.018 213.34 211.058 209.688 211.058C206.036 211.058 203.075 214.018 203.075 217.67C203.075 221.322 206.036 224.283 209.688 224.283Z" fill="black"/>
<path d="M209.688 219.582C211.184 219.582 212.397 218.37 212.397 216.873C212.397 215.377 211.184 214.165 209.688 214.165C208.192 214.165 206.979 215.377 206.979 216.873C206.979 218.37 208.192 219.582 209.688 219.582Z" fill="#7E7E7E"/>
<path d="M183.875 145.968C156.151 145.968 133.604 123.502 133.604 95.6974V37.3799H234.146V95.6974C234.146 123.422 211.68 145.968 183.875 145.968Z" fill="#FFC897"/>
<path d="M183.875 139.037C156.151 139.037 133.604 116.571 133.604 88.7662V95.6974C133.604 123.422 156.071 145.968 183.875 145.968C211.6 145.968 234.146 123.502 234.146 95.6974V88.7662C234.146 116.491 211.68 139.037 183.875 139.037Z" fill="#E5A973"/>
<path d="M183.875 145.968C156.151 145.968 133.604 123.502 133.604 95.6974V37.3799H234.146V95.6974C234.146 123.422 211.68 145.968 183.875 145.968Z" stroke="black" stroke-width="4" stroke-miterlimit="10" stroke-linecap="round" stroke-linejoin="round"/>
<path d="M234.545 43.1957C234.385 40.487 234.226 37.6985 234.146 34.9898C200.686 36.5832 167.065 36.3442 133.684 33.3964C133.445 36.5035 133.286 39.6106 133.047 42.7177C134.561 44.0721 136.154 45.5061 137.668 46.8604C138.942 47.4978 140.615 48.3742 142.129 49.1709C148.821 52.6763 158.143 57.1377 167.065 58.8904C170.332 59.5278 173.758 59.8465 177.263 59.7668C192.32 59.6074 204.988 53.6323 210.325 51.1626C211.122 50.7642 211.76 50.4456 212.158 50.3659C212.477 50.2065 212.795 50.1269 213.273 50.1269C214.229 50.1269 215.345 50.3659 216.699 50.6049C218.452 51.0032 220.523 51.4016 222.833 51.2422C225.463 51.0829 227.853 50.2862 230.163 48.7725C231.517 46.8605 233.031 45.0281 234.545 43.1957Z" fill="#E5A973"/>
<path d="M210.325 12.9216C210.325 12.9216 170.092 -13.6081 136.791 16.0287C130.577 21.5258 128.107 29.413 128.107 36.6629V75.0632H133.684V47.1791C133.684 45.1077 135.118 43.5144 136.87 43.5144C139.739 43.5144 155.274 51.7999 168.419 54.1103C188.257 57.5361 206.342 48.3742 210.245 47.0198C216.938 44.6297 222.355 52.9153 230.8 43.594H231.119C232.871 43.594 234.305 45.2671 234.305 47.2588V75.1428H239.882V36.9019C239.723 27.501 228.888 3.91902 210.325 12.9216Z" fill="#231A17"/>
<g opacity="0.34">
<path opacity="0.34" d="M133.605 69.805H128.028V75.0632H133.605V69.805Z" fill="#231A17"/>
<path opacity="0.34" d="M239.723 69.805H234.146V75.0632H239.723V69.805Z" fill="#231A17"/>
</g>
<path d="M210.325 12.9216C210.325 12.9216 170.092 -13.6081 136.791 16.0287C130.577 21.5258 128.107 29.413 128.107 36.6629V75.0632H133.684V47.1791C133.684 45.1077 135.118 43.5144 136.87 43.5144C139.739 43.5144 155.274 51.7999 168.419 54.1103C188.257 57.5361 206.342 48.3742 210.245 47.0198C216.938 44.6297 222.355 52.9153 230.8 43.594H231.119C232.871 43.594 234.305 45.2671 234.305 47.2588V75.1428H239.882V36.9019C239.723 27.501 228.888 3.91902 210.325 12.9216Z" stroke="black" stroke-width="4" stroke-miterlimit="10" stroke-linecap="round" stroke-linejoin="round"/>
<path d="M176.307 38.8139C176.307 38.8139 133.127 41.6023 123.965 18.6577" stroke="black" stroke-width="4" stroke-miterlimit="10" stroke-linecap="round" stroke-linejoin="round"/>
<path d="M182.442 33.3168C182.442 33.3168 140.854 30.6877 130.02 7.74312" stroke="black" stroke-width="4" stroke-miterlimit="10" stroke-linecap="round" stroke-linejoin="round"/>
<path d="M234.146 68.849V94.9804C239.723 94.9804 244.185 89.1645 244.185 81.9147C244.185 74.6648 239.723 68.849 234.146 68.849Z" fill="#FFC897"/>
<path d="M234.146 70.2831V93.4666C237.413 91.3156 239.644 86.9338 239.644 81.835C239.644 76.8159 237.413 72.4341 234.146 70.2831Z" fill="#E5A973"/>
<path d="M234.146 68.849V94.9804C239.723 94.9804 244.185 89.1645 244.185 81.9147C244.185 74.6648 239.723 68.849 234.146 68.849Z" stroke="black" stroke-width="4" stroke-miterlimit="10" stroke-linecap="round" stroke-linejoin="round"/>
<path d="M133.684 68.849V94.9804C128.108 94.9804 123.646 89.1645 123.646 81.9147C123.566 74.6648 128.108 68.849 133.684 68.849Z" fill="#FFC897"/>
<path d="M133.684 70.761C130.816 73.0714 128.824 77.2142 128.824 81.9147C128.824 86.6151 130.736 90.7579 133.684 93.0683V70.761Z" fill="#E5A973"/>
<path d="M133.684 68.849V94.9804C128.108 94.9804 123.646 89.1645 123.646 81.9147C123.566 74.6648 128.108 68.849 133.684 68.849Z" stroke="black" stroke-width="4" stroke-miterlimit="10" stroke-linecap="round" stroke-linejoin="round"/>
<path d="M181.804 90.1206L178.458 101.035C178.458 102.23 182.361 101.274 186.345 102.23" stroke="black" stroke-width="4" stroke-miterlimit="10" stroke-linecap="round" stroke-linejoin="round"/>
<path d="M200.606 110.516C201.801 118.801 191.125 126.131 182.76 124.617" stroke="black" stroke-width="3" stroke-miterlimit="10" stroke-linecap="round" stroke-linejoin="round"/>
<path d="M165.791 80.879C167.639 80.879 169.137 79.2737 169.137 77.2939C169.137 75.3141 167.639 73.7088 165.791 73.7088C163.943 73.7088 162.445 75.3141 162.445 77.2939C162.445 79.2737 163.943 80.879 165.791 80.879Z" stroke="black" stroke-width="2" stroke-miterlimit="10" stroke-linecap="round" stroke-linejoin="round"/>
<path d="M165.791 80.879C167.639 80.879 169.137 79.2737 169.137 77.2939C169.137 75.3141 167.639 73.7088 165.791 73.7088C163.943 73.7088 162.445 75.3141 162.445 77.2939C162.445 79.2737 163.943 80.879 165.791 80.879Z" fill="black"/>
<path d="M154.239 69.7254C155.912 67.7337 159.816 66.3793 164.436 66.3793C168.101 66.3793 171.288 67.2556 173.28 68.61" stroke="black" stroke-width="3" stroke-miterlimit="10" stroke-linecap="round" stroke-linejoin="round"/>
<path d="M202.44 80.879C204.287 80.879 205.786 79.2737 205.786 77.2939C205.786 75.3141 204.287 73.7088 202.44 73.7088C200.591 73.7088 199.093 75.3141 199.093 77.2939C199.093 79.2737 200.591 80.879 202.44 80.879Z" stroke="black" stroke-width="2" stroke-miterlimit="10" stroke-linecap="round" stroke-linejoin="round"/>
<path d="M202.44 80.879C204.287 80.879 205.786 79.2737 205.786 77.2939C205.786 75.3141 204.287 73.7088 202.44 73.7088C200.591 73.7088 199.093 75.3141 199.093 77.2939C199.093 79.2737 200.591 80.879 202.44 80.879Z" fill="black"/>
<path d="M213.991 69.7254C212.318 67.7337 208.414 66.3793 203.793 66.3793C200.128 66.3793 196.941 67.2556 194.95 68.61" stroke="black" stroke-width="3" stroke-miterlimit="10" stroke-linecap="round" stroke-linejoin="round"/>
</svg>
