<svg width="129" height="40" viewBox="0 0 129 40" fill="none" xmlns="http://www.w3.org/2000/svg">
<g clip-path="url(#clip0_119_137)">
<path d="M67.8699 10.05C67.8699 11.4915 66.7133 12.6527 65.2776 12.6527C63.8419 12.6527 62.6853 11.4915 62.6853 10.05C62.6853 8.60861 63.802 7.44745 65.2776 7.44745C66.7532 7.48749 67.8699 8.64865 67.8699 10.05ZM57.1817 15.2953C57.1817 15.5355 57.1817 15.9359 57.1817 15.9359C57.1817 15.9359 55.9454 14.3343 53.3132 14.3343C48.9662 14.3343 45.5763 17.6577 45.5763 22.2623C45.5763 26.8268 48.9263 30.1902 53.3132 30.1902C55.9853 30.1902 57.1817 28.5485 57.1817 28.5485V29.2292C57.1817 29.5495 57.421 29.7898 57.7401 29.7898H60.9704V14.7347C60.9704 14.7347 58.0192 14.7347 57.7401 14.7347C57.421 14.7347 57.1817 15.015 57.1817 15.2953ZM57.1817 24.9449C56.5835 25.8258 55.3871 26.5866 53.9513 26.5866C51.3989 26.5866 49.4448 24.985 49.4448 22.2623C49.4448 19.5395 51.3989 17.9379 53.9513 17.9379C55.3472 17.9379 56.6234 18.7387 57.1817 19.5796V24.9449ZM63.3633 14.7347H67.1919V29.7898H63.3633V14.7347ZM120.553 14.3343C117.921 14.3343 116.684 15.9359 116.684 15.9359V7.48749H112.856V29.7898C112.856 29.7898 115.807 29.7898 116.086 29.7898C116.405 29.7898 116.645 29.5095 116.645 29.2292V28.5485C116.645 28.5485 117.881 30.1902 120.513 30.1902C124.86 30.1902 128.25 26.8268 128.25 22.2623C128.25 17.6977 124.86 14.3343 120.553 14.3343ZM119.915 26.5465C118.439 26.5465 117.283 25.7858 116.684 24.9049V19.5395C117.283 18.7387 118.559 17.8979 119.915 17.8979C122.467 17.8979 124.421 19.4995 124.421 22.2222C124.421 24.9449 122.467 26.5465 119.915 26.5465ZM110.862 20.8609V29.8298H107.033V21.3013C107.033 18.8188 106.236 17.8178 104.082 17.8178C102.925 17.8178 101.729 18.4184 100.971 19.2993V29.7898H97.1426V14.7347H100.174C100.493 14.7347 100.732 15.015 100.732 15.2953V15.9359C101.849 14.7748 103.324 14.3343 104.8 14.3343C106.475 14.3343 107.871 14.8148 108.987 15.7758C110.343 16.8969 110.862 18.3383 110.862 20.8609ZM87.8503 14.3343C85.2182 14.3343 83.9818 15.9359 83.9818 15.9359V7.48749H80.1533V29.7898C80.1533 29.7898 83.1045 29.7898 83.3836 29.7898C83.7027 29.7898 83.942 29.5095 83.942 29.2292V28.5485C83.942 28.5485 85.1783 30.1902 87.8104 30.1902C92.1575 30.1902 95.5474 26.8268 95.5474 22.2623C95.5873 17.6977 92.1974 14.3343 87.8503 14.3343ZM87.2122 26.5465C85.7366 26.5465 84.5801 25.7858 83.9818 24.9049V19.5395C84.5801 18.7387 85.8563 17.8979 87.2122 17.8979C89.7646 17.8979 91.7188 19.4995 91.7188 22.2222C91.7188 24.9449 89.7646 26.5465 87.2122 26.5465ZM76.8431 14.3343C77.9997 14.3343 78.5979 14.5345 78.5979 14.5345V18.0981C78.5979 18.0981 75.4074 17.017 73.4133 19.2993V29.8298H69.5848V14.7347C69.5848 14.7347 72.536 14.7347 72.8151 14.7347C73.1342 14.7347 73.3735 15.015 73.3735 15.2953V15.9359C74.0913 15.0951 75.6467 14.3343 76.8431 14.3343ZM37.0816 28.4284C36.8822 27.9479 36.6828 27.4274 36.4834 26.987C36.1643 26.2663 35.8453 25.5856 35.5661 24.9449L35.5262 24.9049C32.7744 18.8989 29.8232 12.8128 26.7125 6.80681L26.5929 6.56657C26.2738 5.96597 25.9548 5.32533 25.6357 4.68468C25.2369 3.96396 24.8381 3.2032 24.2 2.48248C22.9238 0.880881 21.0893 0 19.1351 0C17.141 0 15.3464 0.880881 14.0303 2.4024C13.4321 3.12312 12.9934 3.88388 12.5946 4.6046C12.2755 5.24525 11.9565 5.88589 11.6374 6.48649L11.5178 6.72673C8.44695 12.7327 5.45586 18.8188 2.70406 24.8248L2.66418 24.9049C2.38501 25.5455 2.06596 26.2262 1.74691 26.9469C1.54751 27.3874 1.3481 27.8679 1.1487 28.3884C0.630241 29.8699 0.470716 31.2713 0.670122 32.7127C1.10881 35.7157 3.10287 38.2382 5.85467 39.3594C6.89158 39.7998 7.96837 40 9.08504 40C9.40409 40 9.80291 39.96 10.122 39.9199C11.438 39.7598 12.794 39.3193 14.1101 38.5586C15.7452 37.6376 17.3006 36.3163 19.0553 34.3944C20.8101 36.3163 22.4053 37.6376 24.0006 38.5586C25.3167 39.3193 26.6726 39.7598 27.9887 39.9199C28.3078 39.96 28.7066 40 29.0256 40C30.1423 40 31.259 39.7998 32.256 39.3594C35.0477 38.2382 37.0019 35.6757 37.4405 32.7127C37.7596 31.3113 37.6001 29.9099 37.0816 28.4284ZM19.0952 30.5105C16.9416 27.7878 15.5458 25.2252 15.0672 23.0631C14.8678 22.1421 14.8279 21.3413 14.9476 20.6206C15.0273 19.98 15.2666 19.4194 15.5857 18.9389C16.3434 17.8579 17.6196 17.1772 19.0952 17.1772C20.5708 17.1772 21.8869 17.8178 22.6048 18.9389C22.9238 19.4194 23.1631 19.98 23.2429 20.6206C23.3625 21.3413 23.3226 22.1822 23.1232 23.0631C22.6446 25.1852 21.2488 27.7477 19.0952 30.5105ZM35.0078 32.3924C34.7286 34.4745 33.3328 36.2763 31.3786 37.0771C30.4215 37.4775 29.3846 37.5976 28.3476 37.4775C27.3506 37.3574 26.3536 37.037 25.3167 36.4364C23.881 35.6356 22.4452 34.3944 20.7702 32.5526C23.4024 29.3093 24.9976 26.3463 25.5958 23.7037C25.875 22.4625 25.9149 21.3413 25.7952 20.3003C25.6357 19.2993 25.2768 18.3784 24.7185 17.5776C23.4821 15.7758 21.4083 14.7347 19.0952 14.7347C16.7821 14.7347 14.7083 15.8158 13.472 17.5776C12.9136 18.3784 12.5547 19.2993 12.3952 20.3003C12.2357 21.3413 12.2755 22.5025 12.5946 23.7037C13.1928 26.3463 14.8279 29.3493 17.4202 32.5926C15.7851 34.4344 14.3095 35.6757 12.8738 36.4765C11.8368 37.0771 10.8398 37.3974 9.84279 37.5175C8.766 37.6376 7.72909 37.4775 6.81182 37.1171C4.85764 36.3163 3.4618 34.5145 3.18263 32.4324C3.06299 31.4314 3.14275 30.4304 3.54156 29.3093C3.66121 28.9089 3.86061 28.5085 4.06002 28.028C4.33919 27.3874 4.65824 26.7067 4.97729 26.026L5.01717 25.9459C7.76897 19.98 10.7202 13.8939 13.791 7.96797L13.9107 7.72773C14.2297 7.12713 14.5488 6.48649 14.8678 5.88589C15.1869 5.24524 15.5458 4.64464 15.9845 4.12412C16.822 3.16316 17.9387 2.64264 19.175 2.64264C20.4113 2.64264 21.528 3.16316 22.3655 4.12412C22.8042 4.64464 23.1631 5.24524 23.4821 5.88589C23.8012 6.48649 24.1202 7.12713 24.4393 7.72773L24.5589 7.96797C27.5899 13.9339 30.5411 20.02 33.2929 25.986V26.026C33.612 26.6667 33.8911 27.3874 34.2102 28.028C34.4096 28.5085 34.609 28.9089 34.7286 29.3093C35.0477 30.3503 35.1673 31.3514 35.0078 32.3924Z" fill="#FF385C"/>
</g>
<defs>
<clipPath id="clip0_119_137">
<rect width="127.66" height="40" fill="white" transform="translate(0.590332)"/>
</clipPath>
</defs>
</svg>
