<svg width="126" height="40" viewBox="0 0 126 40" fill="none" xmlns="http://www.w3.org/2000/svg">
<g clip-path="url(#clip0_119_157)">
<path d="M125.075 27.3125C124.887 27.3125 124.7 27.4375 124.574 27.75C123.322 31.375 121.568 33.5625 120.128 33.5625C119.314 33.5625 119.001 32.625 119.001 31.25C119.001 27.6875 121.13 20.125 122.195 16.625C122.32 16.1875 122.382 15.8125 122.382 15.5C122.382 14.5 121.819 14 120.441 14C119.001 14 117.372 14.5625 115.869 17.25C115.368 14.875 113.74 13.875 111.486 13.875C108.918 13.875 106.413 15.5625 104.346 18.25C102.28 20.9375 99.8373 21.8125 98.0212 21.375C99.3363 18.1875 99.8373 15.75 99.8373 14C99.8373 11.1875 98.4595 9.5 96.205 9.5C92.8233 9.5 90.8819 12.75 90.8819 16.125C90.8819 18.75 92.0718 21.4375 94.702 22.75C92.5101 27.6875 89.3163 32.1875 88.0638 32.1875C86.4981 32.1875 85.9971 24.5 86.1224 19C86.185 15.875 86.4355 15.6875 86.4355 14.75C86.4355 14.1875 86.0597 13.8125 84.6194 13.8125C81.3002 13.8125 80.2356 16.625 80.1103 19.875C80.0477 21.125 79.8598 22.3125 79.5467 23.5C78.169 28.4375 75.2882 32.25 73.4094 32.25C72.5327 32.25 72.2822 31.375 72.2822 30.25C72.2822 26.6875 74.2862 22.1875 74.2862 18.375C74.2862 15.5625 73.0337 13.8125 70.7166 13.8125C67.9611 13.8125 64.3914 17.0625 60.947 23.125C62.0743 18.5 62.5126 14 59.1935 14C58.442 14 57.7531 14.1875 57.1269 14.5625C56.6885 14.75 56.438 15.1875 56.438 15.6875C56.7511 20.625 52.43 33.3125 48.3593 33.3125C47.6078 33.3125 47.2321 32.5 47.2321 31.1875C47.2321 27.625 49.3613 20.0625 50.426 16.5625C50.5512 16.125 50.6139 15.75 50.6139 15.375C50.6139 14.4375 50.0502 13.9375 48.6725 13.9375C47.2321 13.9375 45.6038 14.5 44.1008 17.1875C43.5372 14.8125 41.9716 13.8125 39.7171 13.8125C36.0222 13.8125 31.9515 17.6875 30.1354 22.75C27.693 29.5 22.8709 36.0625 16.2952 36.0625C10.3458 36.0625 7.21455 31.125 7.21455 23.3125C7.21455 12 15.5437 2.8125 21.681 2.8125C24.6244 2.8125 26.0021 4.6875 26.0021 7.5625C26.0021 11.0625 24.0607 12.625 24.0607 14C24.0607 14.375 24.3739 14.8125 25.0627 14.8125C27.7556 14.8125 30.8869 11.6875 30.8869 7.375C30.8869 3.0625 27.5051 0 21.3679 0C11.1599 0 0.952026 10.1875 0.952026 23.3125C0.952026 33.75 6.0873 40 14.9801 40C21.0547 40 26.3779 35.3125 29.196 29.8125C29.5091 34.375 31.5758 36.75 34.7697 36.75C37.5878 36.75 39.8423 35.0625 41.5958 32.125C42.2847 35.1875 44.0382 36.6875 46.3553 36.6875C48.9856 36.6875 51.2401 35 53.3067 31.9375C53.3067 34.375 53.8077 36.6875 55.937 36.6875C56.939 36.6875 58.1289 36.4375 58.3168 35.5625C60.5713 26.375 66.0823 18.8125 67.7732 18.8125C68.2742 18.8125 68.3994 19.3125 68.3994 19.875C68.3994 22.375 66.6459 27.5 66.6459 30.75C66.6459 34.3125 68.1489 36.625 71.2802 36.625C74.7246 36.625 78.2316 32.4375 80.5487 26.25C81.3002 32 82.8659 36.625 85.3082 36.625C88.3143 36.625 93.7626 30.25 97.0192 23.5C98.2717 23.6875 100.213 23.625 102.092 22.3125C101.278 24.3125 100.839 26.5 100.839 28.625C100.839 34.875 103.845 36.625 106.413 36.625C109.231 36.625 111.486 34.9375 113.239 32C113.803 34.625 115.306 36.5625 117.999 36.5625C122.195 36.5625 125.889 32.25 125.889 28.6875C125.952 27.9375 125.514 27.3125 125.075 27.3125ZM37.3999 33.25C35.709 33.25 35.0202 31.5625 35.0202 29C35.0202 24.5625 38.0888 17.125 41.2827 17.125C42.6604 17.125 43.2241 18.75 43.2241 20.8125C43.2241 25.3125 40.3433 33.25 37.3999 33.25ZM95.8293 20C94.8273 18.8125 94.4515 17.125 94.4515 15.6875C94.4515 13.875 95.1404 12.375 95.8919 12.375C96.6434 12.375 96.9565 13.125 96.9565 14.25C96.8939 16 96.2677 18.6875 95.8293 20ZM109.043 33.25C107.352 33.25 106.663 31.25 106.663 29C106.663 24.6875 109.732 17.125 112.926 17.125C114.304 17.125 114.805 18.75 114.805 20.8125C114.867 25.3125 112.049 33.25 109.043 33.25Z" fill="url(#paint0_linear_119_157)"/>
<path d="M125.075 27.3125C124.887 27.3125 124.7 27.4375 124.574 27.75C123.322 31.375 121.568 33.5625 120.128 33.5625C119.314 33.5625 119.001 32.625 119.001 31.25C119.001 27.6875 121.13 20.125 122.195 16.625C122.32 16.1875 122.382 15.8125 122.382 15.5C122.382 14.5 121.819 14 120.441 14C119.001 14 117.372 14.5625 115.869 17.25C115.368 14.875 113.74 13.875 111.486 13.875C108.918 13.875 106.413 15.5625 104.346 18.25C102.28 20.9375 99.8373 21.8125 98.0212 21.375C99.3363 18.1875 99.8373 15.75 99.8373 14C99.8373 11.1875 98.4595 9.5 96.205 9.5C92.8233 9.5 90.8819 12.75 90.8819 16.125C90.8819 18.75 92.0718 21.4375 94.702 22.75C92.5101 27.6875 89.3163 32.1875 88.0638 32.1875C86.4981 32.1875 85.9971 24.5 86.1224 19C86.185 15.875 86.4355 15.6875 86.4355 14.75C86.4355 14.1875 86.0597 13.8125 84.6194 13.8125C81.3002 13.8125 80.2356 16.625 80.1103 19.875C80.0477 21.125 79.8598 22.3125 79.5467 23.5C78.169 28.4375 75.2882 32.25 73.4094 32.25C72.5327 32.25 72.2822 31.375 72.2822 30.25C72.2822 26.6875 74.2862 22.1875 74.2862 18.375C74.2862 15.5625 73.0337 13.8125 70.7166 13.8125C67.9611 13.8125 64.3914 17.0625 60.947 23.125C62.0743 18.5 62.5126 14 59.1935 14C58.442 14 57.7531 14.1875 57.1269 14.5625C56.6885 14.75 56.438 15.1875 56.438 15.6875C56.7511 20.625 52.43 33.3125 48.3593 33.3125C47.6078 33.3125 47.2321 32.5 47.2321 31.1875C47.2321 27.625 49.3613 20.0625 50.426 16.5625C50.5512 16.125 50.6139 15.75 50.6139 15.375C50.6139 14.4375 50.0502 13.9375 48.6725 13.9375C47.2321 13.9375 45.6038 14.5 44.1008 17.1875C43.5372 14.8125 41.9716 13.8125 39.7171 13.8125C36.0222 13.8125 31.9515 17.6875 30.1354 22.75C27.693 29.5 22.8709 36.0625 16.2952 36.0625C10.3458 36.0625 7.21455 31.125 7.21455 23.3125C7.21455 12 15.5437 2.8125 21.681 2.8125C24.6244 2.8125 26.0021 4.6875 26.0021 7.5625C26.0021 11.0625 24.0607 12.625 24.0607 14C24.0607 14.375 24.3739 14.8125 25.0627 14.8125C27.7556 14.8125 30.8869 11.6875 30.8869 7.375C30.8869 3.0625 27.5051 0 21.3679 0C11.1599 0 0.952026 10.1875 0.952026 23.3125C0.952026 33.75 6.0873 40 14.9801 40C21.0547 40 26.3779 35.3125 29.196 29.8125C29.5091 34.375 31.5758 36.75 34.7697 36.75C37.5878 36.75 39.8423 35.0625 41.5958 32.125C42.2847 35.1875 44.0382 36.6875 46.3553 36.6875C48.9856 36.6875 51.2401 35 53.3067 31.9375C53.3067 34.375 53.8077 36.6875 55.937 36.6875C56.939 36.6875 58.1289 36.4375 58.3168 35.5625C60.5713 26.375 66.0823 18.8125 67.7732 18.8125C68.2742 18.8125 68.3994 19.3125 68.3994 19.875C68.3994 22.375 66.6459 27.5 66.6459 30.75C66.6459 34.3125 68.1489 36.625 71.2802 36.625C74.7246 36.625 78.2316 32.4375 80.5487 26.25C81.3002 32 82.8659 36.625 85.3082 36.625C88.3143 36.625 93.7626 30.25 97.0192 23.5C98.2717 23.6875 100.213 23.625 102.092 22.3125C101.278 24.3125 100.839 26.5 100.839 28.625C100.839 34.875 103.845 36.625 106.413 36.625C109.231 36.625 111.486 34.9375 113.239 32C113.803 34.625 115.306 36.5625 117.999 36.5625C122.195 36.5625 125.889 32.25 125.889 28.6875C125.952 27.9375 125.514 27.3125 125.075 27.3125ZM37.3999 33.25C35.709 33.25 35.0202 31.5625 35.0202 29C35.0202 24.5625 38.0888 17.125 41.2827 17.125C42.6604 17.125 43.2241 18.75 43.2241 20.8125C43.2241 25.3125 40.3433 33.25 37.3999 33.25ZM95.8293 20C94.8273 18.8125 94.4515 17.125 94.4515 15.6875C94.4515 13.875 95.1404 12.375 95.8919 12.375C96.6434 12.375 96.9565 13.125 96.9565 14.25C96.8939 16 96.2677 18.6875 95.8293 20ZM109.043 33.25C107.352 33.25 106.663 31.25 106.663 29C106.663 24.6875 109.732 17.125 112.926 17.125C114.304 17.125 114.805 18.75 114.805 20.8125C114.867 25.3125 112.049 33.25 109.043 33.25Z" fill="url(#paint1_radial_119_157)"/>
<path d="M125.075 27.3125C124.887 27.3125 124.7 27.4375 124.574 27.75C123.322 31.375 121.568 33.5625 120.128 33.5625C119.314 33.5625 119.001 32.625 119.001 31.25C119.001 27.6875 121.13 20.125 122.195 16.625C122.32 16.1875 122.382 15.8125 122.382 15.5C122.382 14.5 121.819 14 120.441 14C119.001 14 117.372 14.5625 115.869 17.25C115.368 14.875 113.74 13.875 111.486 13.875C108.918 13.875 106.413 15.5625 104.346 18.25C102.28 20.9375 99.8373 21.8125 98.0212 21.375C99.3363 18.1875 99.8373 15.75 99.8373 14C99.8373 11.1875 98.4595 9.5 96.205 9.5C92.8233 9.5 90.8819 12.75 90.8819 16.125C90.8819 18.75 92.0718 21.4375 94.702 22.75C92.5101 27.6875 89.3163 32.1875 88.0638 32.1875C86.4981 32.1875 85.9971 24.5 86.1224 19C86.185 15.875 86.4355 15.6875 86.4355 14.75C86.4355 14.1875 86.0597 13.8125 84.6194 13.8125C81.3002 13.8125 80.2356 16.625 80.1103 19.875C80.0477 21.125 79.8598 22.3125 79.5467 23.5C78.169 28.4375 75.2882 32.25 73.4094 32.25C72.5327 32.25 72.2822 31.375 72.2822 30.25C72.2822 26.6875 74.2862 22.1875 74.2862 18.375C74.2862 15.5625 73.0337 13.8125 70.7166 13.8125C67.9611 13.8125 64.3914 17.0625 60.947 23.125C62.0743 18.5 62.5126 14 59.1935 14C58.442 14 57.7531 14.1875 57.1269 14.5625C56.6885 14.75 56.438 15.1875 56.438 15.6875C56.7511 20.625 52.43 33.3125 48.3593 33.3125C47.6078 33.3125 47.2321 32.5 47.2321 31.1875C47.2321 27.625 49.3613 20.0625 50.426 16.5625C50.5512 16.125 50.6139 15.75 50.6139 15.375C50.6139 14.4375 50.0502 13.9375 48.6725 13.9375C47.2321 13.9375 45.6038 14.5 44.1008 17.1875C43.5372 14.8125 41.9716 13.8125 39.7171 13.8125C36.0222 13.8125 31.9515 17.6875 30.1354 22.75C27.693 29.5 22.8709 36.0625 16.2952 36.0625C10.3458 36.0625 7.21455 31.125 7.21455 23.3125C7.21455 12 15.5437 2.8125 21.681 2.8125C24.6244 2.8125 26.0021 4.6875 26.0021 7.5625C26.0021 11.0625 24.0607 12.625 24.0607 14C24.0607 14.375 24.3739 14.8125 25.0627 14.8125C27.7556 14.8125 30.8869 11.6875 30.8869 7.375C30.8869 3.0625 27.5051 0 21.3679 0C11.1599 0 0.952026 10.1875 0.952026 23.3125C0.952026 33.75 6.0873 40 14.9801 40C21.0547 40 26.3779 35.3125 29.196 29.8125C29.5091 34.375 31.5758 36.75 34.7697 36.75C37.5878 36.75 39.8423 35.0625 41.5958 32.125C42.2847 35.1875 44.0382 36.6875 46.3553 36.6875C48.9856 36.6875 51.2401 35 53.3067 31.9375C53.3067 34.375 53.8077 36.6875 55.937 36.6875C56.939 36.6875 58.1289 36.4375 58.3168 35.5625C60.5713 26.375 66.0823 18.8125 67.7732 18.8125C68.2742 18.8125 68.3994 19.3125 68.3994 19.875C68.3994 22.375 66.6459 27.5 66.6459 30.75C66.6459 34.3125 68.1489 36.625 71.2802 36.625C74.7246 36.625 78.2316 32.4375 80.5487 26.25C81.3002 32 82.8659 36.625 85.3082 36.625C88.3143 36.625 93.7626 30.25 97.0192 23.5C98.2717 23.6875 100.213 23.625 102.092 22.3125C101.278 24.3125 100.839 26.5 100.839 28.625C100.839 34.875 103.845 36.625 106.413 36.625C109.231 36.625 111.486 34.9375 113.239 32C113.803 34.625 115.306 36.5625 117.999 36.5625C122.195 36.5625 125.889 32.25 125.889 28.6875C125.952 27.9375 125.514 27.3125 125.075 27.3125ZM37.3999 33.25C35.709 33.25 35.0202 31.5625 35.0202 29C35.0202 24.5625 38.0888 17.125 41.2827 17.125C42.6604 17.125 43.2241 18.75 43.2241 20.8125C43.2241 25.3125 40.3433 33.25 37.3999 33.25ZM95.8293 20C94.8273 18.8125 94.4515 17.125 94.4515 15.6875C94.4515 13.875 95.1404 12.375 95.8919 12.375C96.6434 12.375 96.9565 13.125 96.9565 14.25C96.8939 16 96.2677 18.6875 95.8293 20ZM109.043 33.25C107.352 33.25 106.663 31.25 106.663 29C106.663 24.6875 109.732 17.125 112.926 17.125C114.304 17.125 114.805 18.75 114.805 20.8125C114.867 25.3125 112.049 33.25 109.043 33.25Z" fill="url(#paint2_radial_119_157)"/>
<path d="M125.075 27.3125C124.887 27.3125 124.7 27.4375 124.574 27.75C123.322 31.375 121.568 33.5625 120.128 33.5625C119.314 33.5625 119.001 32.625 119.001 31.25C119.001 27.6875 121.13 20.125 122.195 16.625C122.32 16.1875 122.382 15.8125 122.382 15.5C122.382 14.5 121.819 14 120.441 14C119.001 14 117.372 14.5625 115.869 17.25C115.368 14.875 113.74 13.875 111.486 13.875C108.918 13.875 106.413 15.5625 104.346 18.25C102.28 20.9375 99.8373 21.8125 98.0212 21.375C99.3363 18.1875 99.8373 15.75 99.8373 14C99.8373 11.1875 98.4595 9.5 96.205 9.5C92.8233 9.5 90.8819 12.75 90.8819 16.125C90.8819 18.75 92.0718 21.4375 94.702 22.75C92.5101 27.6875 89.3163 32.1875 88.0638 32.1875C86.4981 32.1875 85.9971 24.5 86.1224 19C86.185 15.875 86.4355 15.6875 86.4355 14.75C86.4355 14.1875 86.0597 13.8125 84.6194 13.8125C81.3002 13.8125 80.2356 16.625 80.1103 19.875C80.0477 21.125 79.8598 22.3125 79.5467 23.5C78.169 28.4375 75.2882 32.25 73.4094 32.25C72.5327 32.25 72.2822 31.375 72.2822 30.25C72.2822 26.6875 74.2862 22.1875 74.2862 18.375C74.2862 15.5625 73.0337 13.8125 70.7166 13.8125C67.9611 13.8125 64.3914 17.0625 60.947 23.125C62.0743 18.5 62.5126 14 59.1935 14C58.442 14 57.7531 14.1875 57.1269 14.5625C56.6885 14.75 56.438 15.1875 56.438 15.6875C56.7511 20.625 52.43 33.3125 48.3593 33.3125C47.6078 33.3125 47.2321 32.5 47.2321 31.1875C47.2321 27.625 49.3613 20.0625 50.426 16.5625C50.5512 16.125 50.6139 15.75 50.6139 15.375C50.6139 14.4375 50.0502 13.9375 48.6725 13.9375C47.2321 13.9375 45.6038 14.5 44.1008 17.1875C43.5372 14.8125 41.9716 13.8125 39.7171 13.8125C36.0222 13.8125 31.9515 17.6875 30.1354 22.75C27.693 29.5 22.8709 36.0625 16.2952 36.0625C10.3458 36.0625 7.21455 31.125 7.21455 23.3125C7.21455 12 15.5437 2.8125 21.681 2.8125C24.6244 2.8125 26.0021 4.6875 26.0021 7.5625C26.0021 11.0625 24.0607 12.625 24.0607 14C24.0607 14.375 24.3739 14.8125 25.0627 14.8125C27.7556 14.8125 30.8869 11.6875 30.8869 7.375C30.8869 3.0625 27.5051 0 21.3679 0C11.1599 0 0.952026 10.1875 0.952026 23.3125C0.952026 33.75 6.0873 40 14.9801 40C21.0547 40 26.3779 35.3125 29.196 29.8125C29.5091 34.375 31.5758 36.75 34.7697 36.75C37.5878 36.75 39.8423 35.0625 41.5958 32.125C42.2847 35.1875 44.0382 36.6875 46.3553 36.6875C48.9856 36.6875 51.2401 35 53.3067 31.9375C53.3067 34.375 53.8077 36.6875 55.937 36.6875C56.939 36.6875 58.1289 36.4375 58.3168 35.5625C60.5713 26.375 66.0823 18.8125 67.7732 18.8125C68.2742 18.8125 68.3994 19.3125 68.3994 19.875C68.3994 22.375 66.6459 27.5 66.6459 30.75C66.6459 34.3125 68.1489 36.625 71.2802 36.625C74.7246 36.625 78.2316 32.4375 80.5487 26.25C81.3002 32 82.8659 36.625 85.3082 36.625C88.3143 36.625 93.7626 30.25 97.0192 23.5C98.2717 23.6875 100.213 23.625 102.092 22.3125C101.278 24.3125 100.839 26.5 100.839 28.625C100.839 34.875 103.845 36.625 106.413 36.625C109.231 36.625 111.486 34.9375 113.239 32C113.803 34.625 115.306 36.5625 117.999 36.5625C122.195 36.5625 125.889 32.25 125.889 28.6875C125.952 27.9375 125.514 27.3125 125.075 27.3125ZM37.3999 33.25C35.709 33.25 35.0202 31.5625 35.0202 29C35.0202 24.5625 38.0888 17.125 41.2827 17.125C42.6604 17.125 43.2241 18.75 43.2241 20.8125C43.2241 25.3125 40.3433 33.25 37.3999 33.25ZM95.8293 20C94.8273 18.8125 94.4515 17.125 94.4515 15.6875C94.4515 13.875 95.1404 12.375 95.8919 12.375C96.6434 12.375 96.9565 13.125 96.9565 14.25C96.8939 16 96.2677 18.6875 95.8293 20ZM109.043 33.25C107.352 33.25 106.663 31.25 106.663 29C106.663 24.6875 109.732 17.125 112.926 17.125C114.304 17.125 114.805 18.75 114.805 20.8125C114.867 25.3125 112.049 33.25 109.043 33.25Z" fill="url(#paint3_radial_119_157)"/>
<path d="M125.075 27.3125C124.887 27.3125 124.7 27.4375 124.574 27.75C123.322 31.375 121.568 33.5625 120.128 33.5625C119.314 33.5625 119.001 32.625 119.001 31.25C119.001 27.6875 121.13 20.125 122.195 16.625C122.32 16.1875 122.382 15.8125 122.382 15.5C122.382 14.5 121.819 14 120.441 14C119.001 14 117.372 14.5625 115.869 17.25C115.368 14.875 113.74 13.875 111.486 13.875C108.918 13.875 106.413 15.5625 104.346 18.25C102.28 20.9375 99.8373 21.8125 98.0212 21.375C99.3363 18.1875 99.8373 15.75 99.8373 14C99.8373 11.1875 98.4595 9.5 96.205 9.5C92.8233 9.5 90.8819 12.75 90.8819 16.125C90.8819 18.75 92.0718 21.4375 94.702 22.75C92.5101 27.6875 89.3163 32.1875 88.0638 32.1875C86.4981 32.1875 85.9971 24.5 86.1224 19C86.185 15.875 86.4355 15.6875 86.4355 14.75C86.4355 14.1875 86.0597 13.8125 84.6194 13.8125C81.3002 13.8125 80.2356 16.625 80.1103 19.875C80.0477 21.125 79.8598 22.3125 79.5467 23.5C78.169 28.4375 75.2882 32.25 73.4094 32.25C72.5327 32.25 72.2822 31.375 72.2822 30.25C72.2822 26.6875 74.2862 22.1875 74.2862 18.375C74.2862 15.5625 73.0337 13.8125 70.7166 13.8125C67.9611 13.8125 64.3914 17.0625 60.947 23.125C62.0743 18.5 62.5126 14 59.1935 14C58.442 14 57.7531 14.1875 57.1269 14.5625C56.6885 14.75 56.438 15.1875 56.438 15.6875C56.7511 20.625 52.43 33.3125 48.3593 33.3125C47.6078 33.3125 47.2321 32.5 47.2321 31.1875C47.2321 27.625 49.3613 20.0625 50.426 16.5625C50.5512 16.125 50.6139 15.75 50.6139 15.375C50.6139 14.4375 50.0502 13.9375 48.6725 13.9375C47.2321 13.9375 45.6038 14.5 44.1008 17.1875C43.5372 14.8125 41.9716 13.8125 39.7171 13.8125C36.0222 13.8125 31.9515 17.6875 30.1354 22.75C27.693 29.5 22.8709 36.0625 16.2952 36.0625C10.3458 36.0625 7.21455 31.125 7.21455 23.3125C7.21455 12 15.5437 2.8125 21.681 2.8125C24.6244 2.8125 26.0021 4.6875 26.0021 7.5625C26.0021 11.0625 24.0607 12.625 24.0607 14C24.0607 14.375 24.3739 14.8125 25.0627 14.8125C27.7556 14.8125 30.8869 11.6875 30.8869 7.375C30.8869 3.0625 27.5051 0 21.3679 0C11.1599 0 0.952026 10.1875 0.952026 23.3125C0.952026 33.75 6.0873 40 14.9801 40C21.0547 40 26.3779 35.3125 29.196 29.8125C29.5091 34.375 31.5758 36.75 34.7697 36.75C37.5878 36.75 39.8423 35.0625 41.5958 32.125C42.2847 35.1875 44.0382 36.6875 46.3553 36.6875C48.9856 36.6875 51.2401 35 53.3067 31.9375C53.3067 34.375 53.8077 36.6875 55.937 36.6875C56.939 36.6875 58.1289 36.4375 58.3168 35.5625C60.5713 26.375 66.0823 18.8125 67.7732 18.8125C68.2742 18.8125 68.3994 19.3125 68.3994 19.875C68.3994 22.375 66.6459 27.5 66.6459 30.75C66.6459 34.3125 68.1489 36.625 71.2802 36.625C74.7246 36.625 78.2316 32.4375 80.5487 26.25C81.3002 32 82.8659 36.625 85.3082 36.625C88.3143 36.625 93.7626 30.25 97.0192 23.5C98.2717 23.6875 100.213 23.625 102.092 22.3125C101.278 24.3125 100.839 26.5 100.839 28.625C100.839 34.875 103.845 36.625 106.413 36.625C109.231 36.625 111.486 34.9375 113.239 32C113.803 34.625 115.306 36.5625 117.999 36.5625C122.195 36.5625 125.889 32.25 125.889 28.6875C125.952 27.9375 125.514 27.3125 125.075 27.3125ZM37.3999 33.25C35.709 33.25 35.0202 31.5625 35.0202 29C35.0202 24.5625 38.0888 17.125 41.2827 17.125C42.6604 17.125 43.2241 18.75 43.2241 20.8125C43.2241 25.3125 40.3433 33.25 37.3999 33.25ZM95.8293 20C94.8273 18.8125 94.4515 17.125 94.4515 15.6875C94.4515 13.875 95.1404 12.375 95.8919 12.375C96.6434 12.375 96.9565 13.125 96.9565 14.25C96.8939 16 96.2677 18.6875 95.8293 20ZM109.043 33.25C107.352 33.25 106.663 31.25 106.663 29C106.663 24.6875 109.732 17.125 112.926 17.125C114.304 17.125 114.805 18.75 114.805 20.8125C114.867 25.3125 112.049 33.25 109.043 33.25Z" fill="url(#paint4_radial_119_157)"/>
<path d="M125.075 27.3125C124.887 27.3125 124.7 27.4375 124.574 27.75C123.322 31.375 121.568 33.5625 120.128 33.5625C119.314 33.5625 119.001 32.625 119.001 31.25C119.001 27.6875 121.13 20.125 122.195 16.625C122.32 16.1875 122.382 15.8125 122.382 15.5C122.382 14.5 121.819 14 120.441 14C119.001 14 117.372 14.5625 115.869 17.25C115.368 14.875 113.74 13.875 111.486 13.875C108.918 13.875 106.413 15.5625 104.346 18.25C102.28 20.9375 99.8373 21.8125 98.0212 21.375C99.3363 18.1875 99.8373 15.75 99.8373 14C99.8373 11.1875 98.4595 9.5 96.205 9.5C92.8233 9.5 90.8819 12.75 90.8819 16.125C90.8819 18.75 92.0718 21.4375 94.702 22.75C92.5101 27.6875 89.3163 32.1875 88.0638 32.1875C86.4981 32.1875 85.9971 24.5 86.1224 19C86.185 15.875 86.4355 15.6875 86.4355 14.75C86.4355 14.1875 86.0597 13.8125 84.6194 13.8125C81.3002 13.8125 80.2356 16.625 80.1103 19.875C80.0477 21.125 79.8598 22.3125 79.5467 23.5C78.169 28.4375 75.2882 32.25 73.4094 32.25C72.5327 32.25 72.2822 31.375 72.2822 30.25C72.2822 26.6875 74.2862 22.1875 74.2862 18.375C74.2862 15.5625 73.0337 13.8125 70.7166 13.8125C67.9611 13.8125 64.3914 17.0625 60.947 23.125C62.0743 18.5 62.5126 14 59.1935 14C58.442 14 57.7531 14.1875 57.1269 14.5625C56.6885 14.75 56.438 15.1875 56.438 15.6875C56.7511 20.625 52.43 33.3125 48.3593 33.3125C47.6078 33.3125 47.2321 32.5 47.2321 31.1875C47.2321 27.625 49.3613 20.0625 50.426 16.5625C50.5512 16.125 50.6139 15.75 50.6139 15.375C50.6139 14.4375 50.0502 13.9375 48.6725 13.9375C47.2321 13.9375 45.6038 14.5 44.1008 17.1875C43.5372 14.8125 41.9716 13.8125 39.7171 13.8125C36.0222 13.8125 31.9515 17.6875 30.1354 22.75C27.693 29.5 22.8709 36.0625 16.2952 36.0625C10.3458 36.0625 7.21455 31.125 7.21455 23.3125C7.21455 12 15.5437 2.8125 21.681 2.8125C24.6244 2.8125 26.0021 4.6875 26.0021 7.5625C26.0021 11.0625 24.0607 12.625 24.0607 14C24.0607 14.375 24.3739 14.8125 25.0627 14.8125C27.7556 14.8125 30.8869 11.6875 30.8869 7.375C30.8869 3.0625 27.5051 0 21.3679 0C11.1599 0 0.952026 10.1875 0.952026 23.3125C0.952026 33.75 6.0873 40 14.9801 40C21.0547 40 26.3779 35.3125 29.196 29.8125C29.5091 34.375 31.5758 36.75 34.7697 36.75C37.5878 36.75 39.8423 35.0625 41.5958 32.125C42.2847 35.1875 44.0382 36.6875 46.3553 36.6875C48.9856 36.6875 51.2401 35 53.3067 31.9375C53.3067 34.375 53.8077 36.6875 55.937 36.6875C56.939 36.6875 58.1289 36.4375 58.3168 35.5625C60.5713 26.375 66.0823 18.8125 67.7732 18.8125C68.2742 18.8125 68.3994 19.3125 68.3994 19.875C68.3994 22.375 66.6459 27.5 66.6459 30.75C66.6459 34.3125 68.1489 36.625 71.2802 36.625C74.7246 36.625 78.2316 32.4375 80.5487 26.25C81.3002 32 82.8659 36.625 85.3082 36.625C88.3143 36.625 93.7626 30.25 97.0192 23.5C98.2717 23.6875 100.213 23.625 102.092 22.3125C101.278 24.3125 100.839 26.5 100.839 28.625C100.839 34.875 103.845 36.625 106.413 36.625C109.231 36.625 111.486 34.9375 113.239 32C113.803 34.625 115.306 36.5625 117.999 36.5625C122.195 36.5625 125.889 32.25 125.889 28.6875C125.952 27.9375 125.514 27.3125 125.075 27.3125ZM37.3999 33.25C35.709 33.25 35.0202 31.5625 35.0202 29C35.0202 24.5625 38.0888 17.125 41.2827 17.125C42.6604 17.125 43.2241 18.75 43.2241 20.8125C43.2241 25.3125 40.3433 33.25 37.3999 33.25ZM95.8293 20C94.8273 18.8125 94.4515 17.125 94.4515 15.6875C94.4515 13.875 95.1404 12.375 95.8919 12.375C96.6434 12.375 96.9565 13.125 96.9565 14.25C96.8939 16 96.2677 18.6875 95.8293 20ZM109.043 33.25C107.352 33.25 106.663 31.25 106.663 29C106.663 24.6875 109.732 17.125 112.926 17.125C114.304 17.125 114.805 18.75 114.805 20.8125C114.867 25.3125 112.049 33.25 109.043 33.25Z" fill="url(#paint5_radial_119_157)"/>
</g>
<defs>
<linearGradient id="paint0_linear_119_157" x1="124.569" y1="40.6909" x2="20.6101" y2="15.9011" gradientUnits="userSpaceOnUse">
<stop stop-color="#7D2AE7"/>
<stop offset="0.7708" stop-color="#7D2AE7"/>
<stop offset="1" stop-color="#7D2AE7" stop-opacity="0"/>
</linearGradient>
<radialGradient id="paint1_radial_119_157" cx="0" cy="0" r="1" gradientUnits="userSpaceOnUse" gradientTransform="translate(64.944 44.3381) rotate(-45.7496) scale(37.6116 24.9974)">
<stop stop-color="#6420FF"/>
<stop offset="1" stop-color="#6420FF" stop-opacity="0"/>
</radialGradient>
<radialGradient id="paint2_radial_119_157" cx="0" cy="0" r="1" gradientUnits="userSpaceOnUse" gradientTransform="translate(3.94339 26.6402) rotate(5.07814) scale(73.2742 58.2862)">
<stop offset="0.25" stop-color="#00C4CC"/>
<stop offset="1" stop-color="#00C4CC" stop-opacity="0"/>
</radialGradient>
<radialGradient id="paint3_radial_119_157" cx="0" cy="0" r="1" gradientUnits="userSpaceOnUse" gradientTransform="translate(54.2954 39.9702) rotate(-38.7933) scale(47.1824 32.2481)">
<stop stop-color="#6420FF"/>
<stop offset="1" stop-color="#6420FF" stop-opacity="0"/>
</radialGradient>
<radialGradient id="paint4_radial_119_157" cx="0" cy="0" r="1" gradientUnits="userSpaceOnUse" gradientTransform="translate(7.95423 46.9509) rotate(-34.2139) scale(55.0119 37.5878)">
<stop stop-color="#6420FF"/>
<stop offset="1" stop-color="#6420FF" stop-opacity="0"/>
</radialGradient>
<radialGradient id="paint5_radial_119_157" cx="0" cy="0" r="1" gradientUnits="userSpaceOnUse" gradientTransform="translate(12.9789 3.66522) rotate(12.4475) scale(108.787 133.182)">
<stop stop-color="#00C4CC"/>
<stop offset="1" stop-color="#00C4CC" stop-opacity="0"/>
</radialGradient>
<clipPath id="clip0_119_157">
<rect width="125" height="40" fill="white" transform="translate(0.952026)"/>
</clipPath>
</defs>
</svg>
