<svg width="24" height="24" viewBox="0 0 24 24" fill="none" xmlns="http://www.w3.org/2000/svg">
<path fill-rule="evenodd" clip-rule="evenodd" d="M4.38999 4.40705C4.63978 4.15709 4.97851 4.01667 5.33171 4.01667C5.68491 4.01667 6.02364 4.15709 6.27343 4.40705L11.9917 10.1311L17.7099 4.40705C17.8328 4.2797 17.9798 4.17813 18.1423 4.10825C18.3048 4.03837 18.4796 4.00159 18.6564 4.00005C18.8333 3.99851 19.0087 4.03225 19.1724 4.09929C19.3361 4.16633 19.4848 4.26533 19.6099 4.39052C19.7349 4.51571 19.8338 4.66458 19.9008 4.82845C19.9678 4.99231 20.0015 5.16788 19.9999 5.34492C19.9984 5.52196 19.9617 5.69692 19.8919 5.85959C19.8221 6.02226 19.7206 6.16939 19.5934 6.29238L13.8751 12.0164L19.5934 17.7404C19.836 17.9919 19.9702 18.3287 19.9672 18.6783C19.9642 19.0278 19.8241 19.3623 19.5771 19.6095C19.3302 19.8567 18.9961 19.9969 18.6468 19.9999C18.2976 20.003 17.9611 19.8686 17.7099 19.6257L11.9917 13.9017L6.27343 19.6257C6.02221 19.8686 5.68575 20.003 5.3365 19.9999C4.98726 19.9969 4.65318 19.8567 4.40622 19.6095C4.15925 19.3623 4.01917 19.0278 4.01613 18.6783C4.0131 18.3287 4.14736 17.9919 4.38999 17.7404L10.1082 12.0164L4.38999 6.29238C4.14028 6.04235 4 5.70327 4 5.34972C4 4.99617 4.14028 4.65709 4.38999 4.40705Z" fill="black"/>
</svg>
