<svg width="30" height="30" viewBox="0 0 30 30" fill="none" xmlns="http://www.w3.org/2000/svg">
<g clip-path="url(#clip0_122_2190)">
<path fill-rule="evenodd" clip-rule="evenodd" d="M0 15C0 6.70312 6.70312 0 15 0C23.2969 0 30 6.70312 30 15C30 23.2969 23.2969 30 15 30H13.7812V29.9531C6.09375 29.3438 0 22.875 0 15ZM15.375 27.5625C22.125 27.375 27.5625 21.7969 27.5625 15C27.5625 8.0625 21.9375 2.4375 15 2.4375C8.0625 2.4375 2.4375 8.0625 2.4375 15C2.4375 21.9375 8.0625 27.5625 15 27.5625H15.375Z" fill="white"/>
<path fill-rule="evenodd" clip-rule="evenodd" d="M8.90625 4.03125C8.71875 3.98438 8.57812 3.9375 8.39062 3.84375L9.1875 1.54688C9.28125 1.59375 9.375 1.59375 9.5625 1.64063C9.84375 1.73438 10.1719 1.82812 10.3594 1.92187C10.4063 1.92187 10.4531 1.96875 10.5469 1.96875C10.875 2.10937 11.25 2.25 11.5781 2.39062L11.625 2.4375C11.7656 2.53125 12 2.625 12.1875 2.71875C12.2812 2.76562 12.375 2.8125 12.4688 2.85937H12.5156H12.5625C12.6094 2.90625 12.75 2.95312 12.8906 3.04687H12.9375C12.9375 3.04687 12.9844 3.04687 12.9844 3.09375C12.9844 3.09375 13.0312 3.09375 13.0312 3.14062C13.0312 3.14062 13.0312 3.14062 13.0781 3.14062C13.0781 3.14062 13.0781 3.14062 13.125 3.14062C13.125 3.14062 13.1719 3.14062 13.1719 3.1875C13.2656 3.23438 13.4062 3.32812 13.5 3.375C13.6406 3.46875 13.8281 3.5625 13.9687 3.65625C14.1094 3.75 14.2969 3.89062 14.4375 3.9375L14.4844 3.98437C14.5781 4.03125 14.6719 4.07812 14.7187 4.125C14.8125 4.17187 14.9062 4.26562 15 4.3125C15.0469 4.35937 15.0938 4.35937 15.0938 4.40625C15.1406 4.45312 15.1875 4.45312 15.2344 4.5C15.2812 4.54688 15.2812 4.54687 15.3281 4.54687C15.3281 4.54687 15.3281 4.54687 15.375 4.54687H15.4219H15.4687C16.8281 5.57812 18 6.75 19.0312 8.10937C20.1562 9.60937 21.0469 11.25 21.6562 13.0312C23.4844 18.1875 22.9687 24.0938 20.0625 28.7812L18 27.5156C20.4844 23.4844 20.9531 18.3281 19.3594 13.8281C18.8437 12.3281 18.0469 10.875 17.0625 9.60938C16.1719 8.4375 15.1406 7.40625 13.9687 6.51562C13.9219 6.46875 13.8281 6.42188 13.7812 6.375C13.7344 6.32812 13.6875 6.28125 13.6406 6.28125C13.5938 6.23437 13.5937 6.23437 13.5469 6.1875C13.4531 6.14062 13.4062 6.04687 13.3125 6C13.2656 5.95312 13.2188 5.95312 13.2188 5.95312H13.1719V6.09375C13.125 6.04687 13.0313 6 12.9844 6C12.8906 5.90625 12.7969 5.85937 12.7031 5.8125L12.6562 5.76562L12.6094 5.71875C12.6094 5.71875 12.5625 5.71875 12.5156 5.67188C12.4688 5.625 12.375 5.57812 12.2813 5.53125C12.1875 5.48437 12.0469 5.39062 12 5.34375C11.9531 5.34375 11.9062 5.29687 11.9062 5.29687L11.8594 5.25C11.8125 5.25 11.8125 5.20312 11.7656 5.20312C11.7656 5.20312 11.7187 5.15625 11.6719 5.15625C11.625 5.10937 11.5781 5.10937 11.4844 5.0625C11.3906 5.01562 11.2969 4.96875 11.2031 4.92187C11.0156 4.82812 10.8281 4.73437 10.6406 4.6875L10.5938 4.64062C10.3594 4.54687 10.0781 4.45312 9.79687 4.3125C9.65625 4.26562 9.60937 4.21875 9.51562 4.21875C9.32812 4.125 9.14063 4.07812 8.90625 4.03125Z" fill="white"/>
<path fill-rule="evenodd" clip-rule="evenodd" d="M14.0625 9.79688C17.7188 9.14062 21.1406 7.07813 23.4375 4.125L25.3594 5.625C22.6406 9.04688 18.75 11.4375 14.4844 12.1875C12.375 12.5625 10.1719 12.5625 8.0625 12.1875C5.95313 11.8125 3.89062 11.0625 2.01562 9.9375L3.28125 7.875C4.875 8.8125 6.65625 9.51563 8.48438 9.84375C10.3125 10.125 12.1875 10.125 14.0625 9.79688Z" fill="white"/>
<path fill-rule="evenodd" clip-rule="evenodd" d="M7.54688 27.3281C9.60938 16.7344 20.4375 10.875 29.25 13.2656L28.5938 15.6094C21.0938 13.5469 11.7188 18.6094 9.89062 27.7969L7.54688 27.3281Z" fill="white"/>
</g>
<defs>
<clipPath id="clip0_122_2190">
<rect width="30" height="30" fill="white"/>
</clipPath>
</defs>
</svg>
