<svg width="128" height="40" viewBox="0 0 128 40" fill="none" xmlns="http://www.w3.org/2000/svg">
<g clip-path="url(#clip0_119_149)">
<path d="M16.2613 14.2727V18.5455H26.5727C26.2989 20.9091 25.4776 22.7273 24.2001 23.9091C22.7401 25.3636 20.3676 27 16.2613 27C9.96504 27 5.03751 21.9091 5.03751 15.6364C5.03751 9.36364 9.87379 4.27273 16.2613 4.27273C19.6376 4.27273 22.1926 5.63636 24.0176 7.36364L27.0289 4.36364C24.4739 1.90909 21.0064 0 16.2613 0C7.59253 0 0.29248 7 0.29248 15.6364C0.29248 24.2727 7.59253 31.2727 16.2613 31.2727C20.9151 31.2727 24.4739 29.7273 27.2114 26.9091C30.0402 24.0909 30.9527 20.0909 30.9527 16.9091C30.9527 15.9091 30.8614 15 30.7702 14.2727H16.2613Z" fill="#4285F4"/>
<path d="M43.7278 10.7273C38.1615 10.7273 33.5077 15 33.5077 20.8182C33.5077 26.6364 38.0702 30.9091 43.7278 30.9091C49.3853 30.9091 53.9478 26.7273 53.9478 20.9091C53.9478 15 49.3853 10.7273 43.7278 10.7273ZM43.7278 27C40.6252 27 37.979 24.4545 37.979 20.9091C37.979 17.2727 40.6252 14.8182 43.7278 14.8182C46.8303 14.8182 49.4765 17.2727 49.4765 20.9091C49.4765 24.4545 46.8303 27 43.7278 27Z" fill="#EA4335"/>
<path d="M93.6418 13H93.4593C92.4555 11.8182 90.5393 10.7273 88.0755 10.7273C82.9655 10.7273 78.5854 15.0909 78.5854 20.8182C78.5854 26.4545 82.9655 30.9091 88.0755 30.9091C90.5393 30.9091 92.4555 29.8182 93.4593 28.6364H93.6418V30.0909C93.6418 33.9091 91.543 36 88.258 36C85.5205 36 83.878 34.0909 83.148 32.3636L79.3154 34C80.4105 36.6364 83.4217 40 88.3493 40C93.5505 40 98.0218 36.9091 98.0218 29.4545V11.2727H93.8243V13H93.6418ZM88.5318 27C85.4292 27 83.148 24.3636 83.148 20.9091C83.148 17.3636 85.5205 14.8182 88.5318 14.8182C91.543 14.8182 93.9155 17.4545 93.9155 21C94.0068 24.4545 91.6343 27 88.5318 27Z" fill="#4285F4"/>
<path d="M66.4492 10.7273C60.8829 10.7273 56.2291 15 56.2291 20.8182C56.2291 26.6364 60.7917 30.9091 66.4492 30.9091C72.1067 30.9091 76.6693 26.7273 76.6693 20.9091C76.6693 15 72.1067 10.7273 66.4492 10.7273ZM66.4492 27C63.3467 27 60.7004 24.4545 60.7004 20.9091C60.7004 17.2727 63.3467 14.8182 66.4492 14.8182C69.5517 14.8182 72.198 17.2727 72.198 20.9091C72.198 24.4545 69.5517 27 66.4492 27Z" fill="#FBBC05"/>
<path d="M101.398 0.454559H105.778V31H101.398V0.454559Z" fill="#34A853"/>
<path d="M119.283 27C117.002 27 115.451 26 114.356 23.9091L127.952 18.3636L127.496 17.1818C126.675 14.9091 124.028 10.7273 118.827 10.7273C113.626 10.7273 109.246 14.8182 109.246 20.8182C109.246 26.4545 113.534 30.9091 119.283 30.9091C123.937 30.9091 126.583 28.0909 127.77 26.4545L124.302 24.1818C123.116 25.9091 121.565 27 119.283 27ZM119.01 14.5454C120.835 14.5454 122.386 15.4545 122.842 16.7273L113.717 20.5454C113.626 16.3636 116.728 14.5454 119.01 14.5454Z" fill="#EA4335"/>
</g>
<defs>
<clipPath id="clip0_119_149">
<rect width="127.66" height="40" fill="white" transform="translate(0.29248)"/>
</clipPath>
</defs>
</svg>
